REM MD5 70dfc6d6772a05f7523cdb24f290bf17
FILE "Official UK PlayStation Best Games Ever! (UK).bin" BINARY
  TRACK 01 MODE2/2352
    INDEX 01 00:00:00
  TRACK 02 AUDIO
    INDEX 00 27:35:48
    INDEX 01 27:37:48
  TRACK 03 AUDIO
    INDEX 00 32:18:66
    INDEX 01 32:20:66
REM LEADOUT 35:22:23
